<?xml version="1.0" encoding="UTF-8"?>
<svg id="Capa_2" xmlns="http://www.w3.org/2000/svg" viewBox="0 0 108 72">
  <defs>
    <style>
      .cls-1 {
        fill: #eef3ff;
      }

      .cls-2 {
        font-family: ArialRoundedMTBold, 'Arial Rounded MT Bold';
        font-size: 9.55px;
      }

      .cls-2, .cls-3 {
        fill: #0043ff;
      }

      .cls-4 {
        fill: #d7e3ff;
      }
    </style>
  </defs>
  <g>
    <path class="cls-1" d="M75.03,30.01c1.1-.84,1.31-2.41.47-3.5s-2.41-1.31-3.5-.47c-7.43,5.69-15.68,11.2-17.89,9.23-.79-.71-.46-2.1-.09-3.68.29-1.21.6-2.53.47-3.75l-4.97.55c.04.37-.21,1.42-.36,2.05-.49,2.05-1.39,5.86,1.61,8.56,4.82,4.33,12.55-.01,24.26-8.97M49.95,29.09l2.78-4.16c-2.8-1.87-9.67-2.36-25.73,1.67-1.34.34-2.15,1.69-1.82,3.03.34,1.34,1.69,2.15,3.03,1.82,18.15-4.56,21.59-2.45,21.73-2.36M52.73,24.93l-2.23,3.33,3.99-.44c-.06-.55-.21-1.08-.49-1.57-.28-.48-.69-.94-1.27-1.33h0ZM50.5,28.26l-.98.11s.04.2.14.37c.11.2.25.32.29.34l.55-.83h0Z"/>
    <path class="cls-4" d="M75.44,27.48c1.1-.84,1.31-2.41.47-3.5s-2.41-1.31-3.5-.47c-7.43,5.69-15.68,11.2-17.89,9.23-.79-.71-.46-2.1-.09-3.68.29-1.21.6-2.53.47-3.75l-4.97.55c.04.37-.21,1.42-.36,2.05-.49,2.05-1.39,5.86,1.61,8.56,4.82,4.33,12.55-.01,24.26-8.97M50.36,26.56l2.78-4.16c-2.8-1.87-9.67-2.36-25.73,1.67-1.34.34-2.15,1.69-1.82,3.03.34,1.34,1.69,2.15,3.03,1.82,18.15-4.56,21.59-2.45,21.73-2.36M53.13,22.4l-2.23,3.33,3.99-.44c-.06-.55-.21-1.07-.49-1.57-.28-.48-.69-.94-1.27-1.33h0ZM50.91,25.73l-.98.11s.04.2.14.37c.11.2.25.32.29.34l.55-.83h0Z"/>
    <path class="cls-3" d="M76.2,24.48c1.1-.84,1.31-2.41.47-3.5-.84-1.1-2.41-1.31-3.5-.47-7.43,5.69-15.68,11.2-17.89,9.23-.79-.71-.46-2.1-.09-3.68.29-1.21.6-2.53.47-3.75l-4.97.55c.04.37-.21,1.42-.36,2.05-.49,2.05-1.39,5.86,1.61,8.56,4.82,4.33,12.55-.01,24.26-8.97M51.12,23.56l2.78-4.16c-2.8-1.87-9.67-2.36-25.73,1.67-1.34.34-2.15,1.69-1.82,3.03.34,1.34,1.69,2.15,3.03,1.82,18.15-4.56,21.59-2.45,21.73-2.36M53.89,19.4l-2.23,3.33,3.99-.44c-.06-.55-.21-1.08-.49-1.57-.28-.48-.69-.94-1.27-1.33h0ZM51.67,22.73l-.98.11s.04.2.14.37c.11.2.25.32.29.34l.55-.83h0Z"/>
  </g>
  <text class="cls-2" transform="translate(9 54)"><tspan x="0" y="0">CREDI RÁPIDO SV</tspan></text>
</svg>